<mxfile host="Electron" agent="Mozilla/5.0 (Windows NT 10.0; Win64; x64) AppleWebKit/537.36 (KHTML, like Gecko) draw.io/25.0.1 Chrome/128.0.6613.186 Electron/32.2.6 Safari/537.36" version="25.0.1">
  <diagram name="Copia de Copia de Copia de Copia de Página-2" id="gxDLgQXY3wWiBDsAypS5">
    <mxGraphModel dx="1877" dy="621" grid="1" gridSize="10" guides="1" tooltips="1" connect="1" arrows="1" fold="1" page="1" pageScale="1" pageWidth="827" pageHeight="1169" math="0" shadow="0">
      <root>
        <mxCell id="_TbZ3OKUH_A2DCuEO5eH-0" />
        <mxCell id="_TbZ3OKUH_A2DCuEO5eH-1" parent="_TbZ3OKUH_A2DCuEO5eH-0" />
        <mxCell id="_TbZ3OKUH_A2DCuEO5eH-14" style="edgeStyle=orthogonalEdgeStyle;curved=1;html=1;" parent="_TbZ3OKUH_A2DCuEO5eH-1" edge="1">
          <mxGeometry relative="1" as="geometry">
            <mxPoint x="385" y="460" as="targetPoint" />
          </mxGeometry>
        </mxCell>
        <mxCell id="_TbZ3OKUH_A2DCuEO5eH-42" style="edgeStyle=orthogonalEdgeStyle;curved=1;html=1;" parent="_TbZ3OKUH_A2DCuEO5eH-1" edge="1">
          <mxGeometry relative="1" as="geometry">
            <mxPoint x="399.939393939394" y="340" as="targetPoint" />
          </mxGeometry>
        </mxCell>
        <mxCell id="Mo-O--3rLt8qyY6fIOhM-89" value="" style="rounded=0;whiteSpace=wrap;html=1;fillColor=#ECEFF1;strokeColor=none;fontColor=#000000;" parent="_TbZ3OKUH_A2DCuEO5eH-1" vertex="1">
          <mxGeometry x="-80" y="188.88" width="520" height="650" as="geometry" />
        </mxCell>
        <mxCell id="Mo-O--3rLt8qyY6fIOhM-90" style="edgeStyle=none;html=1;startArrow=none;fontColor=#000000;strokeColor=#000000;" parent="_TbZ3OKUH_A2DCuEO5eH-1" source="Mo-O--3rLt8qyY6fIOhM-91" target="Mo-O--3rLt8qyY6fIOhM-92" edge="1">
          <mxGeometry relative="1" as="geometry" />
        </mxCell>
        <mxCell id="Mo-O--3rLt8qyY6fIOhM-91" value="Swagger UI" style="rounded=1;whiteSpace=wrap;html=1;fillColor=#C8E6C9;fontColor=#000000;strokeColor=#000000;" parent="_TbZ3OKUH_A2DCuEO5eH-1" vertex="1">
          <mxGeometry x="-410.00000000000006" y="404.5" width="110" height="39" as="geometry" />
        </mxCell>
        <mxCell id="Mo-O--3rLt8qyY6fIOhM-92" value="API Gateway&lt;br&gt;KrakenD" style="rounded=1;whiteSpace=wrap;html=1;fillColor=#E3F2FD;strokeColor=#000000;fontColor=#000000;" parent="_TbZ3OKUH_A2DCuEO5eH-1" vertex="1">
          <mxGeometry x="-269" y="404.5" width="100" height="40" as="geometry" />
        </mxCell>
        <mxCell id="Mo-O--3rLt8qyY6fIOhM-96" value="" style="rounded=0;whiteSpace=wrap;html=1;fillColor=#FFECB3;fontColor=#000000;strokeColor=none;" parent="_TbZ3OKUH_A2DCuEO5eH-1" vertex="1">
          <mxGeometry x="-80" y="74.25" width="160" height="100" as="geometry" />
        </mxCell>
        <mxCell id="Mo-O--3rLt8qyY6fIOhM-97" value="Mensajeria" style="text;html=1;strokeColor=none;fillColor=none;align=left;verticalAlign=middle;whiteSpace=wrap;rounded=0;dashed=1;dashPattern=8 8;labelBackgroundColor=none;fillStyle=auto;fontColor=#000000;" parent="_TbZ3OKUH_A2DCuEO5eH-1" vertex="1">
          <mxGeometry x="-68.75" y="74.25" width="88.75" height="30" as="geometry" />
        </mxCell>
        <mxCell id="Mo-O--3rLt8qyY6fIOhM-98" value="" style="rounded=0;whiteSpace=wrap;html=1;fillColor=#EDE7F6;fontColor=#000000;strokeColor=none;" parent="_TbZ3OKUH_A2DCuEO5eH-1" vertex="1">
          <mxGeometry x="-330" y="498.88" width="220" height="275" as="geometry" />
        </mxCell>
        <mxCell id="Mo-O--3rLt8qyY6fIOhM-99" style="edgeStyle=orthogonalEdgeStyle;curved=1;html=1;strokeColor=#000000;fontColor=#000000;" parent="_TbZ3OKUH_A2DCuEO5eH-1" source="Mo-O--3rLt8qyY6fIOhM-100" target="Mo-O--3rLt8qyY6fIOhM-136" edge="1">
          <mxGeometry relative="1" as="geometry" />
        </mxCell>
        <mxCell id="Mo-O--3rLt8qyY6fIOhM-100" value="GitHub Actions" style="rounded=1;whiteSpace=wrap;html=1;fillColor=#D1C4E9;strokeColor=#000000;fontColor=#000000;" parent="_TbZ3OKUH_A2DCuEO5eH-1" vertex="1">
          <mxGeometry x="-275.01000000000005" y="533.88" width="110" height="39" as="geometry" />
        </mxCell>
        <mxCell id="Mo-O--3rLt8qyY6fIOhM-101" value="CI/CD" style="text;html=1;strokeColor=none;fillColor=none;align=left;verticalAlign=middle;whiteSpace=wrap;rounded=0;dashed=1;dashPattern=8 8;labelBackgroundColor=none;fillStyle=auto;fontColor=#000000;" parent="_TbZ3OKUH_A2DCuEO5eH-1" vertex="1">
          <mxGeometry x="-320" y="498.88" width="80" height="30" as="geometry" />
        </mxCell>
        <mxCell id="Mo-O--3rLt8qyY6fIOhM-102" value="" style="rounded=0;whiteSpace=wrap;html=1;fillColor=#B3E5FC;fontColor=#000000;strokeColor=none;" parent="_TbZ3OKUH_A2DCuEO5eH-1" vertex="1">
          <mxGeometry x="-69" y="870" width="330" height="125" as="geometry" />
        </mxCell>
        <mxCell id="Mo-O--3rLt8qyY6fIOhM-103" style="edgeStyle=orthogonalEdgeStyle;curved=1;html=1;fontColor=#000000;strokeColor=#000000;" parent="_TbZ3OKUH_A2DCuEO5eH-1" source="Mo-O--3rLt8qyY6fIOhM-104" target="Mo-O--3rLt8qyY6fIOhM-105" edge="1">
          <mxGeometry relative="1" as="geometry" />
        </mxCell>
        <mxCell id="Mo-O--3rLt8qyY6fIOhM-104" value="Docker" style="rounded=1;whiteSpace=wrap;html=1;fontColor=#000000;strokeColor=#000000;fillColor=#0277BD;" parent="_TbZ3OKUH_A2DCuEO5eH-1" vertex="1">
          <mxGeometry x="-49" y="900.5" width="110" height="39" as="geometry" />
        </mxCell>
        <mxCell id="Mo-O--3rLt8qyY6fIOhM-105" value="Kubernetes &lt;br&gt;(EKS en AWS)" style="rounded=1;whiteSpace=wrap;html=1;strokeColor=#000000;fillColor=#81D4FA;fontColor=#000000;" parent="_TbZ3OKUH_A2DCuEO5eH-1" vertex="1">
          <mxGeometry x="101" y="900.5" width="131.25" height="39" as="geometry" />
        </mxCell>
        <mxCell id="Mo-O--3rLt8qyY6fIOhM-106" value="Contenedores y Orquestación" style="text;html=1;strokeColor=none;fillColor=none;align=left;verticalAlign=middle;whiteSpace=wrap;rounded=0;dashed=1;dashPattern=8 8;labelBackgroundColor=none;fillStyle=auto;fontColor=#000000;" parent="_TbZ3OKUH_A2DCuEO5eH-1" vertex="1">
          <mxGeometry x="-68.75" y="870.5" width="180" height="30" as="geometry" />
        </mxCell>
        <mxCell id="Mo-O--3rLt8qyY6fIOhM-107" value="" style="rounded=0;whiteSpace=wrap;html=1;fillColor=#FFE0B2;fontColor=#000000;strokeColor=none;" parent="_TbZ3OKUH_A2DCuEO5eH-1" vertex="1">
          <mxGeometry x="280.88" y="850" width="230.12" height="195" as="geometry" />
        </mxCell>
        <mxCell id="Mo-O--3rLt8qyY6fIOhM-108" style="edgeStyle=orthogonalEdgeStyle;curved=1;html=1;fontColor=#000000;strokeColor=#000000;" parent="_TbZ3OKUH_A2DCuEO5eH-1" source="Mo-O--3rLt8qyY6fIOhM-109" target="Mo-O--3rLt8qyY6fIOhM-110" edge="1">
          <mxGeometry relative="1" as="geometry" />
        </mxCell>
        <mxCell id="Mo-O--3rLt8qyY6fIOhM-109" value="Prometheus&lt;br&gt;(Recolector de Métricas)" style="rounded=1;whiteSpace=wrap;html=1;fontColor=#000000;strokeColor=#000000;fillColor=#FFAB91;" parent="_TbZ3OKUH_A2DCuEO5eH-1" vertex="1">
          <mxGeometry x="309.32" y="900.5" width="171.68" height="39" as="geometry" />
        </mxCell>
        <mxCell id="Mo-O--3rLt8qyY6fIOhM-110" value="Grafana&lt;br&gt;(Visualización de Métricas)" style="rounded=1;whiteSpace=wrap;html=1;strokeColor=#000000;fillColor=#FFCC80;fontColor=#000000;" parent="_TbZ3OKUH_A2DCuEO5eH-1" vertex="1">
          <mxGeometry x="299.71000000000004" y="985" width="190.9" height="39" as="geometry" />
        </mxCell>
        <mxCell id="Mo-O--3rLt8qyY6fIOhM-111" value="Monitoreo" style="text;html=1;strokeColor=none;fillColor=none;align=left;verticalAlign=middle;whiteSpace=wrap;rounded=0;dashed=1;dashPattern=8 8;labelBackgroundColor=none;fillStyle=auto;fontColor=#000000;" parent="_TbZ3OKUH_A2DCuEO5eH-1" vertex="1">
          <mxGeometry x="288.94" y="850" width="180" height="30" as="geometry" />
        </mxCell>
        <mxCell id="Mo-O--3rLt8qyY6fIOhM-112" value="" style="rounded=0;whiteSpace=wrap;html=1;fillColor=#FFF9C4;strokeColor=none;fontColor=#000000;" parent="_TbZ3OKUH_A2DCuEO5eH-1" vertex="1">
          <mxGeometry x="-380" y="180" width="270" height="100" as="geometry" />
        </mxCell>
        <mxCell id="Mo-O--3rLt8qyY6fIOhM-113" style="edgeStyle=orthogonalEdgeStyle;curved=1;html=1;fontColor=#000000;strokeColor=#000000;" parent="_TbZ3OKUH_A2DCuEO5eH-1" source="Mo-O--3rLt8qyY6fIOhM-92" target="Mo-O--3rLt8qyY6fIOhM-116" edge="1">
          <mxGeometry relative="1" as="geometry">
            <mxPoint x="-210" y="404.5000000000001" as="sourcePoint" />
          </mxGeometry>
        </mxCell>
        <mxCell id="Mo-O--3rLt8qyY6fIOhM-114" style="edgeStyle=orthogonalEdgeStyle;curved=1;html=1;fontColor=#000000;strokeColor=#000000;" parent="_TbZ3OKUH_A2DCuEO5eH-1" source="Mo-O--3rLt8qyY6fIOhM-92" target="Mo-O--3rLt8qyY6fIOhM-115" edge="1">
          <mxGeometry relative="1" as="geometry">
            <mxPoint x="-210" y="404.5000000000001" as="sourcePoint" />
          </mxGeometry>
        </mxCell>
        <mxCell id="Mo-O--3rLt8qyY6fIOhM-115" value="OAuth 2.0" style="rounded=1;whiteSpace=wrap;html=1;strokeColor=#000000;fillColor=#FFECB3;fontColor=#000000;" parent="_TbZ3OKUH_A2DCuEO5eH-1" vertex="1">
          <mxGeometry x="-360" y="220" width="100" height="40" as="geometry" />
        </mxCell>
        <mxCell id="Mo-O--3rLt8qyY6fIOhM-116" value="JWT" style="rounded=1;whiteSpace=wrap;html=1;fontColor=#000000;strokeColor=#000000;fillColor=#FFE0B2;" parent="_TbZ3OKUH_A2DCuEO5eH-1" vertex="1">
          <mxGeometry x="-212.5" y="220" width="80" height="40" as="geometry" />
        </mxCell>
        <mxCell id="Mo-O--3rLt8qyY6fIOhM-117" value="Autenticación" style="text;html=1;strokeColor=none;fillColor=none;align=left;verticalAlign=middle;whiteSpace=wrap;rounded=0;dashed=1;dashPattern=8 8;labelBackgroundColor=none;fillStyle=auto;fontColor=#000000;fontStyle=1" parent="_TbZ3OKUH_A2DCuEO5eH-1" vertex="1">
          <mxGeometry x="-370" y="180" width="90" height="30" as="geometry" />
        </mxCell>
        <mxCell id="Mo-O--3rLt8qyY6fIOhM-118" style="edgeStyle=orthogonalEdgeStyle;curved=1;html=1;fontColor=#000000;strokeColor=#000000;" parent="_TbZ3OKUH_A2DCuEO5eH-1" source="Mo-O--3rLt8qyY6fIOhM-119" target="Mo-O--3rLt8qyY6fIOhM-104" edge="1">
          <mxGeometry relative="1" as="geometry">
            <Array as="points">
              <mxPoint x="-220" y="920" />
            </Array>
          </mxGeometry>
        </mxCell>
        <mxCell id="Mo-O--3rLt8qyY6fIOhM-119" value="Registro de Contenedores (Docker Hub)" style="rounded=1;whiteSpace=wrap;html=1;fontColor=#000000;fillColor=#64B5F6;strokeColor=#000000;" parent="_TbZ3OKUH_A2DCuEO5eH-1" vertex="1">
          <mxGeometry x="-312.25" y="687.75" width="183.75" height="60" as="geometry" />
        </mxCell>
        <mxCell id="Mo-O--3rLt8qyY6fIOhM-120" value="" style="rounded=0;whiteSpace=wrap;html=1;fillColor=#F8BBD0;fontColor=#000000;strokeColor=none;" parent="_TbZ3OKUH_A2DCuEO5eH-1" vertex="1">
          <mxGeometry x="144.29999999999998" y="50.25" width="361.68" height="100" as="geometry" />
        </mxCell>
        <mxCell id="Mo-O--3rLt8qyY6fIOhM-121" value="Pruebas End-to-End" style="rounded=1;whiteSpace=wrap;html=1;strokeColor=#000000;fontColor=#000000;fillColor=#BBDEFB;" parent="_TbZ3OKUH_A2DCuEO5eH-1" vertex="1">
          <mxGeometry x="175.98" y="90.25" width="138.32" height="39" as="geometry" />
        </mxCell>
        <mxCell id="Mo-O--3rLt8qyY6fIOhM-122" value="Pruebas" style="text;html=1;strokeColor=none;fillColor=none;align=left;verticalAlign=middle;whiteSpace=wrap;rounded=0;dashed=1;dashPattern=8 8;labelBackgroundColor=none;fillStyle=auto;fontColor=#000000;" parent="_TbZ3OKUH_A2DCuEO5eH-1" vertex="1">
          <mxGeometry x="150.23" y="50.25" width="170" height="30" as="geometry" />
        </mxCell>
        <mxCell id="Mo-O--3rLt8qyY6fIOhM-123" value="" style="shape=image;verticalLabelPosition=bottom;labelBackgroundColor=default;verticalAlign=top;aspect=fixed;imageAspect=0;image=https://static-00.iconduck.com/assets.00/swagger-icon-2048x2048-563qbzey.png;fontColor=#000000;" parent="_TbZ3OKUH_A2DCuEO5eH-1" vertex="1">
          <mxGeometry x="-326.13" y="425" width="32.25" height="32.25" as="geometry" />
        </mxCell>
        <mxCell id="Mo-O--3rLt8qyY6fIOhM-124" value="" style="shape=image;verticalLabelPosition=bottom;labelBackgroundColor=default;verticalAlign=top;aspect=fixed;imageAspect=0;image=https://upload.wikimedia.org/wikipedia/commons/thumb/0/0a/Apache_kafka-icon.svg/1200px-Apache_kafka-icon.svg.png;fontColor=#000000;" parent="_TbZ3OKUH_A2DCuEO5eH-1" vertex="1">
          <mxGeometry x="25.25" y="118.88" width="29.75" height="29.75" as="geometry" />
        </mxCell>
        <mxCell id="Mo-O--3rLt8qyY6fIOhM-125" value="" style="shape=image;verticalLabelPosition=bottom;labelBackgroundColor=default;verticalAlign=top;aspect=fixed;imageAspect=0;image=https://seeklogo.com/images/D/docker-logo-6D6F987702-seeklogo.com.png;fontColor=#000000;" parent="_TbZ3OKUH_A2DCuEO5eH-1" vertex="1">
          <mxGeometry x="21" y="915" width="47.62" height="40" as="geometry" />
        </mxCell>
        <mxCell id="Mo-O--3rLt8qyY6fIOhM-126" value="" style="shape=image;verticalLabelPosition=bottom;labelBackgroundColor=default;verticalAlign=top;aspect=fixed;imageAspect=0;image=https://upload.wikimedia.org/wikipedia/commons/thumb/3/39/Kubernetes_logo_without_workmark.svg/2109px-Kubernetes_logo_without_workmark.svg.png;fontColor=#000000;" parent="_TbZ3OKUH_A2DCuEO5eH-1" vertex="1">
          <mxGeometry x="206.75" y="922.25" width="34.5" height="33.5" as="geometry" />
        </mxCell>
        <mxCell id="Mo-O--3rLt8qyY6fIOhM-127" value="" style="shape=image;verticalLabelPosition=bottom;labelBackgroundColor=default;verticalAlign=top;aspect=fixed;imageAspect=0;image=https://cdn.worldvectorlogo.com/logos/prometheus.svg;fontColor=#000000;" parent="_TbZ3OKUH_A2DCuEO5eH-1" vertex="1">
          <mxGeometry x="459.32" y="921.5" width="36.48" height="36.62" as="geometry" />
        </mxCell>
        <mxCell id="Mo-O--3rLt8qyY6fIOhM-128" value="" style="shape=image;verticalLabelPosition=bottom;labelBackgroundColor=default;verticalAlign=top;aspect=fixed;imageAspect=0;image=https://upload.wikimedia.org/wikipedia/commons/thumb/a/a1/Grafana_logo.svg/2005px-Grafana_logo.svg.png;fontColor=#000000;" parent="_TbZ3OKUH_A2DCuEO5eH-1" vertex="1">
          <mxGeometry x="462.82" y="995" width="39.16" height="40" as="geometry" />
        </mxCell>
        <mxCell id="Mo-O--3rLt8qyY6fIOhM-129" value="" style="shape=image;verticalLabelPosition=bottom;labelBackgroundColor=default;verticalAlign=top;aspect=fixed;imageAspect=0;image=https://seeklogo.com/images/G/github-actions-logo-031704BDC6-seeklogo.com.png;fontColor=#000000;" parent="_TbZ3OKUH_A2DCuEO5eH-1" vertex="1">
          <mxGeometry x="-179.01" y="548.88" width="44" height="44" as="geometry" />
        </mxCell>
        <mxCell id="Mo-O--3rLt8qyY6fIOhM-130" value="" style="shape=image;verticalLabelPosition=bottom;labelBackgroundColor=default;verticalAlign=top;aspect=fixed;imageAspect=0;image=https://cdn-icons-png.flaticon.com/512/8786/8786163.png;fontColor=#000000;" parent="_TbZ3OKUH_A2DCuEO5eH-1" vertex="1">
          <mxGeometry x="-300" y="220" width="52" height="52" as="geometry" />
        </mxCell>
        <mxCell id="Mo-O--3rLt8qyY6fIOhM-131" value="" style="shape=image;verticalLabelPosition=bottom;labelBackgroundColor=default;verticalAlign=top;aspect=fixed;imageAspect=0;image=https://miro.medium.com/v2/resize:fit:400/0*eeeO936i7XECDRzV.png;fontColor=#000000;" parent="_TbZ3OKUH_A2DCuEO5eH-1" vertex="1">
          <mxGeometry x="-169" y="231" width="62.67" height="47" as="geometry" />
        </mxCell>
        <mxCell id="Mo-O--3rLt8qyY6fIOhM-132" style="edgeStyle=orthogonalEdgeStyle;curved=1;html=1;fontColor=#000000;strokeColor=#000000;" parent="_TbZ3OKUH_A2DCuEO5eH-1" source="Mo-O--3rLt8qyY6fIOhM-121" target="Mo-O--3rLt8qyY6fIOhM-92" edge="1">
          <mxGeometry relative="1" as="geometry">
            <mxPoint x="200" y="59.5" as="sourcePoint" />
            <mxPoint x="-209.9743589743589" y="404.5" as="targetPoint" />
            <Array as="points">
              <mxPoint x="259" y="10" />
              <mxPoint x="-400" y="10" />
              <mxPoint x="-400" y="370" />
              <mxPoint x="-220" y="370" />
            </Array>
          </mxGeometry>
        </mxCell>
        <mxCell id="Mo-O--3rLt8qyY6fIOhM-133" style="edgeStyle=orthogonalEdgeStyle;curved=1;html=1;fontColor=#000000;strokeColor=#000000;" parent="_TbZ3OKUH_A2DCuEO5eH-1" source="Mo-O--3rLt8qyY6fIOhM-92" target="Mo-O--3rLt8qyY6fIOhM-100" edge="1">
          <mxGeometry relative="1" as="geometry">
            <mxPoint x="-210" y="444.5" as="sourcePoint" />
            <mxPoint x="-220" y="550" as="targetPoint" />
          </mxGeometry>
        </mxCell>
        <mxCell id="Mo-O--3rLt8qyY6fIOhM-134" style="edgeStyle=orthogonalEdgeStyle;curved=1;html=1;fontColor=#000000;strokeColor=#000000;" parent="_TbZ3OKUH_A2DCuEO5eH-1" edge="1">
          <mxGeometry relative="1" as="geometry">
            <mxPoint x="232.25" y="920" as="sourcePoint" />
            <mxPoint x="309.31999999999994" y="920" as="targetPoint" />
          </mxGeometry>
        </mxCell>
        <mxCell id="Mo-O--3rLt8qyY6fIOhM-135" style="edgeStyle=orthogonalEdgeStyle;curved=1;html=1;strokeColor=#000000;fontColor=#000000;" parent="_TbZ3OKUH_A2DCuEO5eH-1" source="Mo-O--3rLt8qyY6fIOhM-136" target="Mo-O--3rLt8qyY6fIOhM-119" edge="1">
          <mxGeometry relative="1" as="geometry" />
        </mxCell>
        <mxCell id="Mo-O--3rLt8qyY6fIOhM-136" value="Jenkins" style="rounded=1;whiteSpace=wrap;html=1;fillColor=#FFCC80;strokeColor=#000000;fontColor=#000000;" parent="_TbZ3OKUH_A2DCuEO5eH-1" vertex="1">
          <mxGeometry x="-275.00000000000006" y="611.88" width="110" height="39" as="geometry" />
        </mxCell>
        <mxCell id="Mo-O--3rLt8qyY6fIOhM-137" value="" style="shape=image;verticalLabelPosition=bottom;labelBackgroundColor=default;verticalAlign=top;aspect=fixed;imageAspect=0;image=https://assets.bitdegree.org/online-learning-platforms/storage/media/2018/11/jenkins-interview-questions-logo.png;" parent="_TbZ3OKUH_A2DCuEO5eH-1" vertex="1">
          <mxGeometry x="-190.57" y="619.38" width="36.13" height="50" as="geometry" />
        </mxCell>
        <mxCell id="Mo-O--3rLt8qyY6fIOhM-138" value="" style="shape=image;verticalLabelPosition=bottom;labelBackgroundColor=default;verticalAlign=top;aspect=fixed;imageAspect=0;image=https://cdn.freebiesupply.com/logos/large/2x/jest-logo-png-transparent.png;" parent="_TbZ3OKUH_A2DCuEO5eH-1" vertex="1">
          <mxGeometry x="285.98" y="99.25" width="45.19" height="50" as="geometry" />
        </mxCell>
        <mxCell id="Mo-O--3rLt8qyY6fIOhM-139" value="Pruebas Unitarias" style="rounded=1;whiteSpace=wrap;html=1;strokeColor=#000000;fillColor=#C8E6C9;fontColor=#000000;" parent="_TbZ3OKUH_A2DCuEO5eH-1" vertex="1">
          <mxGeometry x="344.3" y="90.25" width="130" height="39" as="geometry" />
        </mxCell>
        <mxCell id="Mo-O--3rLt8qyY6fIOhM-140" value="" style="shape=image;verticalLabelPosition=bottom;labelBackgroundColor=default;verticalAlign=top;aspect=fixed;imageAspect=0;image=https://cdn.worldvectorlogo.com/logos/cypress-1.svg;" parent="_TbZ3OKUH_A2DCuEO5eH-1" vertex="1">
          <mxGeometry x="455.01000000000005" y="104" width="40.58" height="40.5" as="geometry" />
        </mxCell>
        <mxCell id="Mo-O--3rLt8qyY6fIOhM-141" value="" style="endArrow=classic;html=1;strokeColor=#000000;fontColor=#000000;curved=1;edgeStyle=orthogonalEdgeStyle;" parent="_TbZ3OKUH_A2DCuEO5eH-1" source="Mo-O--3rLt8qyY6fIOhM-139" target="Mo-O--3rLt8qyY6fIOhM-144" edge="1">
          <mxGeometry width="50" height="50" relative="1" as="geometry">
            <mxPoint x="290" y="200.25" as="sourcePoint" />
            <mxPoint x="330" y="180" as="targetPoint" />
            <Array as="points">
              <mxPoint x="409" y="180" />
              <mxPoint x="409" y="180" />
            </Array>
          </mxGeometry>
        </mxCell>
        <mxCell id="Mo-O--3rLt8qyY6fIOhM-142" value="" style="shape=image;verticalLabelPosition=bottom;labelBackgroundColor=default;verticalAlign=top;aspect=fixed;imageAspect=0;image=https://raw.githubusercontent.com/docker-library/docs/471fa6e4cb58062ccbf91afc111980f9c7004981/swarm/logo.png;" parent="_TbZ3OKUH_A2DCuEO5eH-1" vertex="1">
          <mxGeometry x="-186" y="710.44" width="80" height="66.56" as="geometry" />
        </mxCell>
        <mxCell id="Mo-O--3rLt8qyY6fIOhM-143" value="" style="shape=image;verticalLabelPosition=bottom;labelBackgroundColor=default;verticalAlign=top;aspect=fixed;imageAspect=0;image=https://res.cloudinary.com/apideck/image/upload/w_196,f_auto/v1623252678/icons/krakend-io.png;" parent="_TbZ3OKUH_A2DCuEO5eH-1" vertex="1">
          <mxGeometry x="-205.25" y="412.25" width="65.5" height="65.5" as="geometry" />
        </mxCell>
        <mxCell id="Mo-O--3rLt8qyY6fIOhM-144" value="" style="rounded=0;whiteSpace=wrap;html=1;fillColor=#ECEFF1;strokeColor=none;fontColor=#000000;" parent="_TbZ3OKUH_A2DCuEO5eH-1" vertex="1">
          <mxGeometry x="-80" y="190" width="1010" height="250" as="geometry" />
        </mxCell>
        <mxCell id="Mo-O--3rLt8qyY6fIOhM-145" value="" style="rounded=0;whiteSpace=wrap;html=1;fillColor=#FFFDE7;fontColor=#000000;strokeColor=#000000;fillStyle=auto;gradientColor=none;dashed=1;" parent="_TbZ3OKUH_A2DCuEO5eH-1" vertex="1">
          <mxGeometry x="-49" y="250" width="949" height="170" as="geometry" />
        </mxCell>
        <mxCell id="Mo-O--3rLt8qyY6fIOhM-147" value="Infraestructura" style="text;html=1;align=center;verticalAlign=middle;resizable=0;points=[];autosize=1;strokeColor=none;fillColor=none;fontColor=#000000;" parent="_TbZ3OKUH_A2DCuEO5eH-1" vertex="1">
          <mxGeometry x="-49.99999999999983" y="250.5" width="100" height="30" as="geometry" />
        </mxCell>
        <mxCell id="Mo-O--3rLt8qyY6fIOhM-148" value="" style="group" parent="_TbZ3OKUH_A2DCuEO5eH-1" vertex="1" connectable="0">
          <mxGeometry x="-20" y="300" width="117.5" height="56.5" as="geometry" />
        </mxCell>
        <mxCell id="Mo-O--3rLt8qyY6fIOhM-149" value="Controlador" style="rounded=1;whiteSpace=wrap;html=1;fillColor=#A5D6A7;strokeColor=#000000;fontColor=#000000;" parent="Mo-O--3rLt8qyY6fIOhM-148" vertex="1">
          <mxGeometry width="100" height="40" as="geometry" />
        </mxCell>
        <mxCell id="Mo-O--3rLt8qyY6fIOhM-150" value="" style="shape=image;verticalLabelPosition=bottom;labelBackgroundColor=default;verticalAlign=top;aspect=fixed;imageAspect=0;image=https://cdn-icons-png.flaticon.com/512/7560/7560719.png;fontColor=#000000;" parent="Mo-O--3rLt8qyY6fIOhM-148" vertex="1">
          <mxGeometry x="79.5" y="18.5" width="38" height="38" as="geometry" />
        </mxCell>
        <mxCell id="Mo-O--3rLt8qyY6fIOhM-151" value="Backend - MicroserviciosD en NestJS" style="text;html=1;strokeColor=none;fillColor=none;align=center;verticalAlign=middle;whiteSpace=wrap;rounded=0;dashed=1;dashPattern=8 8;labelBackgroundColor=none;fillStyle=auto;fontColor=#000000;" parent="_TbZ3OKUH_A2DCuEO5eH-1" vertex="1">
          <mxGeometry x="-68.75" y="190" width="229" height="35" as="geometry" />
        </mxCell>
        <mxCell id="Mo-O--3rLt8qyY6fIOhM-152" style="edgeStyle=orthogonalEdgeStyle;html=1;curved=1;strokeColor=#000000;fontColor=#000000;" parent="_TbZ3OKUH_A2DCuEO5eH-1" target="Mo-O--3rLt8qyY6fIOhM-149" edge="1">
          <mxGeometry relative="1" as="geometry">
            <mxPoint x="31.25" y="310" as="targetPoint" />
            <Array as="points">
              <mxPoint x="-100" y="425" />
              <mxPoint x="-100" y="320" />
            </Array>
            <mxPoint x="-169" y="425" as="sourcePoint" />
          </mxGeometry>
        </mxCell>
        <mxCell id="Mo-O--3rLt8qyY6fIOhM-153" value="" style="rounded=0;whiteSpace=wrap;html=1;strokeColor=none;fillColor=#FFFDE7;" parent="_TbZ3OKUH_A2DCuEO5eH-1" vertex="1">
          <mxGeometry x="440" y="250.5" width="20" height="119" as="geometry" />
        </mxCell>
        <mxCell id="Mo-O--3rLt8qyY6fIOhM-154" value="Kafka" style="rounded=1;whiteSpace=wrap;html=1;fontColor=#000000;strokeColor=#000000;fillColor=#FFCC80;" parent="_TbZ3OKUH_A2DCuEO5eH-1" vertex="1">
          <mxGeometry x="-30" y="114.25" width="85" height="39" as="geometry" />
        </mxCell>
        <mxCell id="Mo-O--3rLt8qyY6fIOhM-155" value="" style="group" parent="_TbZ3OKUH_A2DCuEO5eH-1" vertex="1" connectable="0">
          <mxGeometry x="245" y="260" width="640.2399999999998" height="148" as="geometry" />
        </mxCell>
        <mxCell id="Mo-O--3rLt8qyY6fIOhM-156" value="Base de Datos&lt;div&gt;MongoDB&lt;/div&gt;" style="shape=cylinder3;whiteSpace=wrap;html=1;boundedLbl=1;backgroundOutline=1;size=6.9226492470189385;rounded=1;fillStyle=auto;strokeColor=#000000;fillColor=#08ee69;gradientColor=none;fontColor=#000000;" parent="Mo-O--3rLt8qyY6fIOhM-155" vertex="1">
          <mxGeometry x="511" width="110" height="50" as="geometry" />
        </mxCell>
        <mxCell id="Mo-O--3rLt8qyY6fIOhM-157" value="" style="group" parent="Mo-O--3rLt8qyY6fIOhM-155" vertex="1" connectable="0">
          <mxGeometry x="171" y="4.5" width="171.45000000000024" height="63.5" as="geometry" />
        </mxCell>
        <mxCell id="Mo-O--3rLt8qyY6fIOhM-158" value="Repositorio MongoDB&lt;br&gt;(Implementación)" style="rounded=1;whiteSpace=wrap;html=1;fontColor=#000000;fillColor=#FFE0B2;strokeColor=#000000;" parent="Mo-O--3rLt8qyY6fIOhM-157" vertex="1">
          <mxGeometry width="160" height="40" as="geometry" />
        </mxCell>
        <mxCell id="Mo-O--3rLt8qyY6fIOhM-159" value="" style="shape=image;verticalLabelPosition=bottom;labelBackgroundColor=default;verticalAlign=top;aspect=fixed;imageAspect=0;image=https://cdn-icons-png.flaticon.com/512/4566/4566971.png;" parent="Mo-O--3rLt8qyY6fIOhM-157" vertex="1">
          <mxGeometry x="127.95000000000024" y="20" width="43.5" height="43.5" as="geometry" />
        </mxCell>
        <mxCell id="Mo-O--3rLt8qyY6fIOhM-160" value="" style="group" parent="Mo-O--3rLt8qyY6fIOhM-155" vertex="1" connectable="0">
          <mxGeometry x="361" y="4.5" width="143" height="80" as="geometry" />
        </mxCell>
        <mxCell id="Mo-O--3rLt8qyY6fIOhM-161" value="ORM&lt;div&gt;Mongoose&lt;/div&gt;" style="rounded=1;whiteSpace=wrap;html=1;strokeColor=#000000;fillColor=#FFEE58;fontColor=#000000;" parent="Mo-O--3rLt8qyY6fIOhM-160" vertex="1">
          <mxGeometry width="99.65156794425073" height="40" as="geometry" />
        </mxCell>
        <mxCell id="Mo-O--3rLt8qyY6fIOhM-162" value="" style="shape=image;verticalLabelPosition=bottom;labelBackgroundColor=default;verticalAlign=top;aspect=fixed;imageAspect=0;image=data:image/png,iVBORw0KGgoAAAANSUhEUgAAARgAAAEYCAYAAACHjumMAAAX60lEQVR4nOzdC5RcVZ3v8e9FuLTYmEShKl4eiYc3WI0asggv4U4qihAFHxFJI6BiySguSQ9KO8qC4aHtQgI4OsYyCoMkPgID0aA8TiRIMI0hmlSRISFwCDE6qZ5gAgYnYqKzTu8daDpd1VVdteucU/37LHsR06erdqerf7XP3v+99x6IiDiigBERZxQwIuKMAkZEnFHAiIgzChgRcUYBIyLOKGBExBkFjIg4o4AREWcUMCLijAJGRJxRwIiIMwoYEXFGASMizihgRMQZBYyIOKOAERFnFDAi4owCRkScUcCIiDMKGBFxRgEjIs4oYETEGQWMiDijgBERZxQwIuKMAkZEnFHAiIgzChgRcUYBIyLOKGBExBkFjIg4o4AREWcUMCLijAJGRJxRwIiIMwoYEXFGASMizihgRMQZBYyIOKOAERFnFDAi4owCRkScUcCIiDMKGBFxRgEjIs4oYETEGQWMiDijgBERZxQwIuKMAkZEnFHAiIgzChgRcUYBIyLOKGBExBkFjIg4o4AREWcUMCLijAJGRJxRwIiIMwoYEXFGASMizihgRMQZBYyIOKOAERFnFDAi4owCRkScUcCIiDMKGBFxRgEjIs4oYETEGQWMiDijgBERZxQwIuKMAkZEnFHAiIgzChgRcUYBIyLOKGBExBkFjIg4o4AREWcUMCLijAJGRJxRwIiIMwoYEXFGASMizihgRMQZBYyIOKOAERFnFDAi4owCRkScUcCIiDMKGBFxRgEjIs4oYETEGQWMiDijgBERZxQwIuKMAkZEnNkz6gZIc6RgrzQcBhwAjLV/vRP4b+A5YFMR/jjCxz1oDGQOhsOBg4DxHbA/8Hpgb+CNA97M/u+g539uwMP9CdgObAs/CqY9W4EXgFIfbCqZ68OPUgk29ZnrJab+T9QNELeycGYWLjJ/pH2Yy3cAjwO9PqwBHgtgVWB+4XeTgw94MAfYz03rqxK2bWP4UYK1RXgGWA88G/7Xh80Rtm3UU8C0qBS0dcECYHoDHu7hAO4JYEkAKwITRP08GJuFz3rwOeB1DXiuRtsErAxgTWBC81c+FKNu1GihgGlRM+GTHaZ30Whhj2GJD7cF8NPA3qJkYEIn9AAfTMCtd/g99PfQfNNjW+bDb6JuVCtSwLSoblg8Fv7B8dOE4bKyAMs3wL1Pwi/SsE8azszAe9JwRkx7NUN5Cfhd+FEwt1jr+mBNyf65aMaHpEYKmBbVA38A3tTkpw0D514fbg9vqV4H6U64CTi7ye1wIbzFujeAXuAR34z7yDAUMC2qx4yTvCbCJmwtwU0L4QYPJmXhG8BbImxPo60vwb1FEzoPBWa2SwZRwEQoa6aNDwfGAwdm4UAgDewLTLSX7V/hNmOzHU8Iw+Sxbjh31yd64O/N+S6GtS2AW4G54bfswZftVHWrWWNn334WwAMKHEMB0wRZEyAnejDZgyOBQ+1HWwOf5vfdJqD6xShgBlpqp8EvSsBAcL3C73PpgMAZlfU6CpgGsQVnXhqOTMHhY+DYCSZMDrMFZ6491z2gHmWYgAlf7MttUdzEJrRtsJdatBdTTvj9BiUolmD1Blj+PPyqOAp6OQqYOtieydSsmZo9vcE9kpp1D/h59pgq2HFDXefDdB/uwXwPx2bhEjsQG2XB3Gj0uB049gvwiz74a9QNajQFTI3CUPFMYdn0uA1a+nCYD09hAmatHd/ZTR5eO7jL7sGeHrwrC5cBpzWrzfKyPuA/fPADWNwqYzgKmCpk4VAPzrGhMiXq9pTjw+k+3IcJGD/sXQ11XfcwP/csHJ+Fi4EPR90rG6V2AD/34UcB3BckeLmDAqYMD9o8OCsLnwFOiro91fDhUh9uxlTyzu2Aj5e57ii71qgiuwzg4x58acACRWm+3vBWahnML8K6qBtTCwXMACfD5IPhPR3mFmFyAt+9f9INZ4V/OBMuPgW+NdRFBfjU/DKfG8rBMPZkmNkBM4BTIq6vGc3+BjxZgpUlWF6EFRvg0edjPEM16gPGg/FZuMCDCzGzPkm2PQ/7BrAjA5nO/iwZ0spueNtInsAOCn/Nrs6W6D0H3OXDDwN4JG7T4aM2YDzYL2fexc9upZoMH07z4aEU7NEFpXIzQz5M8eHRkT7PLLg8bRY3SnxsK8HcInxz12B/1EZdwGRN2fqldtVv0m6BhhVATx6+gBnoDQP04jKX3t0N76vnubJwatZU6UZRS1OLjQHcGrz6ly782Ye91zCAj8X06IbbLydJngpMr+YOH1ZF1YhRETAZOCgD53fA+eWmblvIptnw5j7YnoHDOk1F6ZBFbQWYMR/uqOfJUtCWhYs64MqY19HsBFYXYEkfLC3BysEDphmzLOMg4ICMeZ0c1WF2AJxoP5L6hvREARb1wcMFeLiviVPgLR0w9h32sgZtupQYPlzow79jejHfsaX5Q9lqw6juF9xUyEyDX8Q8ZAYLezbfyMNXh7swBXt1wDHAMR68NfwATkjQdhS77LAr3q/2TTW3Uy0ZMBmY3Alfj3PNimNLuuH/88qg7MpyF9Y6o1SJB4fkYFHSBssfgMmL4bFavy4F+3TAKR5M8cxrbUqCpvN32lqbObbWZoeLJ2mpgLEzQpd78KlRttZlN/PgoKLds6QHHqxQnbu6u46KZLvn7yXz4PNFKHowNgc/NbP+yVCCeTfCeY14rKxZ1Ppuz3z/xyVkXGdjAa7uhVsaHTQtUc8QBssMuCYLt48zP9iW+L7qtKb4yjaQ6+00/FBSHmxdMcIZpQDW2TGYazyz1UTRh29PgneYEpr4aze3PatXwBP1PlYAv1sBD4a3qAFcvwUeArbYRWHjY3pU0OvT8J5JcL4HbVvg6S1lNnqvVaJ7MBk4+mSYNcEM3o7qHstgW+HXPXD8rv8/C25Jlw+Zlwpw/nz40UieKwX7d8EKO0Aadr2Xl+DetBn7Om7E30Rz7SzB932YXXS0Kfiuo2MOhkmHwynp/oLrWI7hvBT+DB+GH2yAHxfN0TYjksiAseMKPXYFs5Thw9k+LMSW/efMLVO5F/SOAKbn7VqmcsJ3uJzZdmBREW72zZ61TIWPTYPvuvg+IrDEhy/68CsXDz4TLugwW4kmYbxm16DwnF0r8GuRuICZBVek4eqo25EQa/KQ2XVfPQvmpsusT7K2zoZj+sx+vmXZgO+1BYqLfLiqAGu7zC1G3GtiavGU3aXuMczt5hPVnrNkdyfc0/57pO0U98SsGQtL5Gr1AK7NwxW1fE1iAiYLJ2VN6ielyx0LAVych29jehknToNHKl1fgu/eWH5a+2Wz4No0fHHA111ThMVZWNKgpsfVdnvW0g574Fv7oKn58Qmul6nIh4sK4HfZ43ACWLIMvlfpFir2AePBxBx8xW4dILXbmofDdi357zEzPJXqgnYGcE4e7qz0oCnYtwt+PWhKepH95dI6pRbkw5tScEnHgDeW8PVl38SGHL+LbcBkYPzJ8LkJZrc1DeDW55HZ8M4++HMK3tAF9wOTKly/swTd82B2n1nBO6QU/L8u+HFStrOQutzfDe/qgdXA0YM/WYKfzINzw9fYwL+PXcB4pvT8n+weJC3Z1YzIHd1mu4Xw3/jAHPy2iqrbO/JwbqXaCDvo+0CS6l6kdr5Z07am0i1weAvlDxroj9WcfBam5kyx1rUKl4b74FQ4FXPvvDGorrDsgzm4K1XhZxGYLSJm2HEJaV2PZocfmztw8F/EJmBmwT9nzTaPh0bdllY1bcDsW96Uh19bxZdN7xziugzs3QMLstAJbHugxtkFSZSwB7ve7kBQyW5r2iKteE3BXidAZw6+196gUm2paEIGJgZw34uw43fw0FFwZNswSwXa4cQMHPYiLO+DFzA7VO9Mwf4nwHcnwWWHwBhbYxPHwjGpz+PbYEca3lvpogAuDcwGWC+LbAwmA0d3msKdVqqbSIpFeXhfADvKzAaVsy2AD+cHFFzl4EbP7K8jrWuJrempNM62tNtsp/oqkdwiZeHUTrMAT+ESjek5uAXTE/lTvv/uqaoxlHYPFuXgypR97fjwOUawElkSpW24+rMAfjjU3zf1FsmD9hlwwyT4N3WlI9fhwdgVcN8WeCGARZPMPfawq3/HwWnhz7IX7t8CfwvggUnwMWDv5jRdmmwssE+Fz29fABdsGWI/4KYFTBaOnwE/GwdnNOs5pbJxMOXvsP4ZWLUFnrMhc141M3jtcGIWjrSHhG3KwGvb7SyVtJzh6tDmLihTmOk8YFKwz/nw5bebndVSrp9PanMInJGB7QH8ZiOUSvBgh3kTqOY87bdMgk9kYJwPc9JwdLtmAUebLfPgQ31ltndwOshr1w/drrGWROi1A7+bwtufHNxVY8n/0wF0emaVeyIX80ntSvDNG021/ZCcDPJ6sGcOrrRVfwqXZJiSg+UZmBDAtjy8O4Bv1PD1h3iw1NZCONl+UeKnAAsqfb7hPRi71mWhSscTa3UesoGdVcqZQ+nmqLJahvDUbDii0nq1ho7BhF3rS0yNhMIluVKT4DwPHl8BT6+AVSlYm4b3x6nyW6IXQNcvK2woT6MCJgVtZ8GnzzAra3dbaSmJ0z4OzsvAlHbYvAQWbYAfpGGPdnN0h1a3yyO3wKwX4e+VLqr7FikDB3XCz6hjZ3qJtxLcthA+GcB2D8bn4Hq0tGM02+5DpprjaevqwXgw9qNwrz16U1pUOxxrb5s2+7DMNyus16fNnsgtc663VCeAixfA4mquHXHAZOGYGeYkv2NG+hiSKGPHwfuzcDawaRksKMLccbDnOHPKoYJmFCjBnd+0Z59Xo+ZbpBSM7YQvpeHTmlkY1Z4owO1F804WHAznnWK2bqi0U568og94Y9Q7GtRgUwHm3APXPz9o17pKagoYe5j6L+3Gxo2y2dZObLT/HbinxF6Yw8ex9TRjE3LUw2izrQRzi6ao8jkPPumZMZrdNiAahcIg+XVgxis2eeZ1fDRwYkJ6fRsD+JoP3w6GWGs0nKoDxp6rs3SEt0TPYQ7aXm8HhtYDTwawrtZGZ2Bs2pSjT7DHQBxr/rp/uwH1qKIXvmH4ASz1zB4xH0naWdV1Wh/A3YH5XVlVgj+mYYa9tTwtQa/RNQW4vhduq+c42aoCxoMjcnB3FS+UsPexPIBVNrFXA0/5TdpOMWveHY5JwfEdcIJdYq4eT3R22jeWsS0eMo8FsCiAewuwvB3e4MG7sub0hrMTEirhG/3SwHz8yIc1jXjQYQMmByd5cEeZ26Jt9uCtMHxWVDNt1WxZeKsHUz04iyE2xBEZofUFyPeZ42Y3etAWvs7svrXTE3L783gYKj4sKcF9xSG2vKxX2YAZA20fg6vT8JkBCby2APf3QW8JVpRgXaUy4bjJmHfSt2fgxDSclHZ49Ow8+FBxmHUaI5GCPbpM9WSmUY9ZgiturG5/3hHpGaYYKyF2vfYfKZnX/x8Oh6kHwxkdZhZtckx7KmEv8j+BDQVzYufqIqx7HpZvqOPM6WqVDZiZ8JUOOC6A3sAk3Wrf/Ldl2CNQL7OHujX0HcdVwGBOaLxgGtzaoIdb3w1vbtBjDSnBAbMxgFsDuMOHVdjdGG0v5exqNueKwNPAg755E3o0/N0dyeBso8TuXKQoZOHQLFzTyNMjXQZMCsZ2wTONGF8qwFXz4V8a07KhJTBgthfgi73w9V0DnDNNT+WGmI0lhW1bFsBDgdm2dIVvZmNjIwn3ic75ZiD63JlwT4fZqzbW/y595rjOmzy4qt7HKvZnoVg7Apjjw3W7VpPbXu5VtscStQ3A/XHpnVQj1r9IzTYfbu+D3qw5e/e8OP/7+PDVnDltr56apLuLMRyYj8hSezLhWswA14ROuCnCYHnR9k5WBtALrIrjJMpwYvsLFBXbm/loBr6QgXM6zK75B0TdrsEC042/sMNsjzGSatBN8+AfHTQtaV4owOXzzZ43/WMsGZiRNlXJzShxCHslzxbM+OYTRTOG8vQGCJ6Hvzbh+Z1SwJRRhE1FuNmH+V1wGw5nnEZqPtzXDt/xTE+mJj5cXNRxr2vyMC0w08zjc2bMzOVeRtuAlQV4sM+Mm4S3OUPuZdsqNMhbpRx81oOvVRvKLgd5B7K/GM/UOEU65CFZrsR0kHd7Ho4KYH0K2rpMQaCLLUfWB3BTAItbbRa2GurBVCkPN2dhaRYWNXgtVl0C2BRATy0Dvj50u21VItwemCUrZExhXKPCZSuwxDdLBZYWzHG7iakVazQFTA18WFGAo7pgWZymK++G67vMoPSwR4aU4AYfHmlOy+KrYNZM9Tt8+EPdh/LiVlOstjLM+SI8CazbAM8+b4rbRAFTuz7YmofJOfh5XPYe7oM/F+DmDvjXYS79r4XqvfTrgCnz7Z8nwBFVflmvXXN0jz/MXrRiaBPnEdh1rAemGxwLdryn4qrXEsyvZ2Vsi5nivTJutdcw124uwJndcEIerlO4VE8BM0I2ZN5Hg1ad1qsIpeHOMfLh+81rUey1eXCS/XOlRX7bfcjON/tOS40UMHUIYHPeFGI1fBXqSPhwXYW2LCna9TRiZO3SkBL8sdw1AfT4+ncbMQVMnQJYOw/eCfw+Bm0Ju/KfHuJTW+fBhRE0Ke7Oy8ARpQo/uwAebm6TWosCpgGKsDwPUxgwMxGV+f3/69+/52UBXFqEZ6NrVWy12eUAZQsOPbNxmYyQAqZBArO0v+aKWhd8s+v7rqnSx30taKzk9I4KdU2e2ZpBRkgB00B5uBOYG3U7fHiqZM+t8aFbM0fDOqvC5yZmK39eKlDANFje7AAY+fR1wezwv8Q3iyGlsjdV+mQWLm1eU1qL1iI5kIK2NnjDBrNFYSTGwN4Hw/g4jL3EdC1STRbByUtVAV0z9WAc6IPtUYZL6Hn4SxzCpVVM1ljMiGipgIxWm3llq4SXePUbwraBM4K+WRQZi1qnpFHASNKtCT8Csy3COrvp9V/s57YPnIK2M30a8G4iBUwCjYG9Gr3bWQra+uK9v+v/AI8WYGUfFEvw2xI8EfM2j3oKmAQ6Dj6yGL7XqMfzYKIHH/DNrvlxE/ZM5i6DbxUrlPRLPGmQN4Gmwaca+Xg5+FYMz/hZ6cPZeTgsD9cpXJJJAZNMk3JmU+q6TYVTY7bf8I4SdHfD23xYqDGTZFPAJJRnzkXar97H6TCFgXGxxoeTb4SvRt0QaQwFTHLtl4M7U7DPSB9gJpyTNnvaRO33PnxiNnT48GjUjZHGUcAk2zu64OaRfGEWjugwywmifg08kYcjfZjb1wLnAMmrRf3ikvpdlDXjKFXzYM+sOTw/6lnEHQ/AR1v9bKDRTAHTAsKwSA2/r+zA6z+L2b8mUgFcuFi3RC1NAdMaJmbgnGoutDUvdR+aX68Absprn5qWp4BpEdPgyhTsW+maMfD6nDk4LtKalxL85G74fJRtkOZQwLSOQ7v6t6Mp70xz2P0xzWvSkF5cCBdoQHd0UMC0lg/n+nNkdx60xaDmZXsBOgOtTB41FDAtxoM53hC3QFm4HDggmlb16/XhrfNhYYRtkCZTwLSeA8+CBWMGzCrNhHM8uCKqBvnw3tlwkg9ro2qDREMB04LScPpxdlbJFtTdCrwmqvb48NM++FtUzy/RUcC0qGlw6YCCurao2yOjkwKmdU3KwV1xKKiT0UsB09qmR90AGd0UMCLijAJGRJxRwIiIMwoYEXFGASMizihgRMQZBYyIOKOAERFnFDAi4owCRkScUcCIiDMKGAntAHqjboSIiEjV1IMREWcUMCLijAJGRJxRwIiIMwoYEXFGASMizihgRMQZBYyIOKOAERFnFDAi4owCRkScUcCIiDMKGBFxRgEjIs4oYETEGQWMiDijgBERZxQwIuKMAkZEnFHAiIgzChgRcUYBIyLOKGBExBkFjIg4o4AREWcUMCLijAJGRJxRwIiIMwoYEXFGASMizihgRMQZBYyIOKOAERFnFDAi4owCRkScUcCIiDMKGBFxRgEjIs4oYETEGQWMiDijgBERZxQwIuKMAkZEnFHAiIgzChgRcUYBIyLOKGBExBkFjIg4o4AREWcUMCLijAJGRJxRwIiIMwoYEXFGASMizihgRMQZBYyIOKOAERFnFDAi4owCRkScUcCIiDMKGBFxRgEjIs4oYETEGQWMiDijgBERZxQwIuKMAkZEnFHAiIgzChgRcUYBIyLOKGBExBkFjIg4o4AREWcUMCLizP8GAAD//0cqkckXbVtlAAAAAElFTkSuQmCC;" parent="Mo-O--3rLt8qyY6fIOhM-160" vertex="1">
          <mxGeometry x="63.27874564459941" width="79.72125435540059" height="79.72125435540059" as="geometry" />
        </mxCell>
        <mxCell id="Mo-O--3rLt8qyY6fIOhM-163" value="" style="group" parent="Mo-O--3rLt8qyY6fIOhM-155" vertex="1" connectable="0">
          <mxGeometry x="171" y="84.5" width="171.0500000000004" height="63.5" as="geometry" />
        </mxCell>
        <mxCell id="Mo-O--3rLt8qyY6fIOhM-164" value="Repositorio PostgreSQL&lt;br&gt;(Implementación)" style="rounded=1;whiteSpace=wrap;html=1;fontColor=#000000;fillColor=#FFE0B2;strokeColor=#000000;" parent="Mo-O--3rLt8qyY6fIOhM-163" vertex="1">
          <mxGeometry y="-10" width="160" height="40" as="geometry" />
        </mxCell>
        <mxCell id="Mo-O--3rLt8qyY6fIOhM-165" value="" style="shape=image;verticalLabelPosition=bottom;labelBackgroundColor=default;verticalAlign=top;aspect=fixed;imageAspect=0;image=https://cdn-icons-png.flaticon.com/512/4566/4566971.png;" parent="Mo-O--3rLt8qyY6fIOhM-163" vertex="1">
          <mxGeometry x="127.55000000000041" y="10" width="43.5" height="43.5" as="geometry" />
        </mxCell>
        <mxCell id="Mo-O--3rLt8qyY6fIOhM-166" value="" style="group" parent="Mo-O--3rLt8qyY6fIOhM-155" vertex="1" connectable="0">
          <mxGeometry x="361" y="74.5" width="116.2800000000002" height="65" as="geometry" />
        </mxCell>
        <mxCell id="Mo-O--3rLt8qyY6fIOhM-167" value="ORM&lt;div&gt;Prisma&lt;/div&gt;" style="rounded=1;whiteSpace=wrap;html=1;strokeColor=#000000;fillColor=#FFEE58;fontColor=#000000;" parent="Mo-O--3rLt8qyY6fIOhM-166" vertex="1">
          <mxGeometry width="100" height="40" as="geometry" />
        </mxCell>
        <mxCell id="Mo-O--3rLt8qyY6fIOhM-168" value="" style="shape=image;verticalLabelPosition=bottom;labelBackgroundColor=default;verticalAlign=top;aspect=fixed;imageAspect=0;image=https://img.icons8.com/fluent/512/prisma-orm.png;fontColor=#000000;" parent="Mo-O--3rLt8qyY6fIOhM-166" vertex="1">
          <mxGeometry x="66.2800000000002" y="15" width="50" height="50" as="geometry" />
        </mxCell>
        <mxCell id="Mo-O--3rLt8qyY6fIOhM-169" value="" style="group" parent="Mo-O--3rLt8qyY6fIOhM-155" vertex="1" connectable="0">
          <mxGeometry y="39.94" width="146.06999999999994" height="58.120000000000005" as="geometry" />
        </mxCell>
        <mxCell id="Mo-O--3rLt8qyY6fIOhM-170" value="Orquestador de&amp;nbsp;&lt;div&gt;Repositorios&lt;/div&gt;" style="rounded=1;whiteSpace=wrap;html=1;fontColor=#000000;fillColor=#FFD580;strokeColor=#000000;" parent="Mo-O--3rLt8qyY6fIOhM-169" vertex="1">
          <mxGeometry width="130" height="40" as="geometry" />
        </mxCell>
        <mxCell id="Mo-O--3rLt8qyY6fIOhM-171" value="" style="shape=image;verticalLabelPosition=bottom;labelBackgroundColor=default;verticalAlign=top;aspect=fixed;imageAspect=0;image=https://images.vexels.com/content/157663/preview/two-gear-icon-8139a2.png;" parent="Mo-O--3rLt8qyY6fIOhM-169" vertex="1">
          <mxGeometry x="108" y="22.120000000000005" width="30" height="30" as="geometry" />
        </mxCell>
        <mxCell id="Mo-O--3rLt8qyY6fIOhM-172" value="" style="shape=image;verticalLabelPosition=bottom;labelBackgroundColor=default;verticalAlign=top;aspect=fixed;imageAspect=0;image=https://img.icons8.com/color/600/mongodb.png;" parent="Mo-O--3rLt8qyY6fIOhM-155" vertex="1">
          <mxGeometry x="593.3699999999999" y="30.129999999999995" width="36.87" height="36.87" as="geometry" />
        </mxCell>
        <mxCell id="Mo-O--3rLt8qyY6fIOhM-173" style="edgeStyle=orthogonalEdgeStyle;rounded=0;orthogonalLoop=1;jettySize=auto;html=1;curved=1;" parent="Mo-O--3rLt8qyY6fIOhM-155" source="Mo-O--3rLt8qyY6fIOhM-170" target="Mo-O--3rLt8qyY6fIOhM-158" edge="1">
          <mxGeometry relative="1" as="geometry" />
        </mxCell>
        <mxCell id="Mo-O--3rLt8qyY6fIOhM-174" style="edgeStyle=orthogonalEdgeStyle;rounded=0;orthogonalLoop=1;jettySize=auto;html=1;curved=1;" parent="Mo-O--3rLt8qyY6fIOhM-155" source="Mo-O--3rLt8qyY6fIOhM-170" target="Mo-O--3rLt8qyY6fIOhM-164" edge="1">
          <mxGeometry relative="1" as="geometry">
            <Array as="points">
              <mxPoint x="151" y="59.5" />
              <mxPoint x="151" y="94.5" />
            </Array>
          </mxGeometry>
        </mxCell>
        <mxCell id="Mo-O--3rLt8qyY6fIOhM-175" value="Base de Datos&lt;div&gt;PostgreSQL&lt;/div&gt;" style="shape=cylinder3;whiteSpace=wrap;html=1;boundedLbl=1;backgroundOutline=1;size=6.9226492470189385;rounded=1;fillStyle=auto;strokeColor=#000000;fillColor=#64B5F6;gradientColor=none;fontColor=#000000;" parent="Mo-O--3rLt8qyY6fIOhM-155" vertex="1">
          <mxGeometry x="511" y="69.5" width="110" height="50" as="geometry" />
        </mxCell>
        <mxCell id="Mo-O--3rLt8qyY6fIOhM-176" value="" style="shape=image;verticalLabelPosition=bottom;labelBackgroundColor=default;verticalAlign=top;aspect=fixed;imageAspect=0;image=https://cdn.icon-icons.com/icons2/2415/PNG/512/postgresql_original_wordmark_logo_icon_146392.png;fontColor=#000000;" parent="Mo-O--3rLt8qyY6fIOhM-155" vertex="1">
          <mxGeometry x="597.9899999999998" y="98.25" width="42.25" height="42.25" as="geometry" />
        </mxCell>
        <mxCell id="Mo-O--3rLt8qyY6fIOhM-177" style="edgeStyle=orthogonalEdgeStyle;rounded=0;orthogonalLoop=1;jettySize=auto;html=1;" parent="Mo-O--3rLt8qyY6fIOhM-155" source="Mo-O--3rLt8qyY6fIOhM-158" target="Mo-O--3rLt8qyY6fIOhM-161" edge="1">
          <mxGeometry relative="1" as="geometry" />
        </mxCell>
        <mxCell id="Mo-O--3rLt8qyY6fIOhM-178" style="edgeStyle=orthogonalEdgeStyle;rounded=0;orthogonalLoop=1;jettySize=auto;html=1;" parent="Mo-O--3rLt8qyY6fIOhM-155" source="Mo-O--3rLt8qyY6fIOhM-164" target="Mo-O--3rLt8qyY6fIOhM-167" edge="1">
          <mxGeometry relative="1" as="geometry" />
        </mxCell>
        <mxCell id="Mo-O--3rLt8qyY6fIOhM-179" style="edgeStyle=orthogonalEdgeStyle;rounded=0;orthogonalLoop=1;jettySize=auto;html=1;" parent="Mo-O--3rLt8qyY6fIOhM-155" source="Mo-O--3rLt8qyY6fIOhM-167" target="Mo-O--3rLt8qyY6fIOhM-175" edge="1">
          <mxGeometry relative="1" as="geometry" />
        </mxCell>
        <mxCell id="Mo-O--3rLt8qyY6fIOhM-180" style="edgeStyle=orthogonalEdgeStyle;rounded=0;orthogonalLoop=1;jettySize=auto;html=1;" parent="Mo-O--3rLt8qyY6fIOhM-155" source="Mo-O--3rLt8qyY6fIOhM-161" target="Mo-O--3rLt8qyY6fIOhM-156" edge="1">
          <mxGeometry relative="1" as="geometry" />
        </mxCell>
        <mxCell id="Mo-O--3rLt8qyY6fIOhM-181" value="" style="group" parent="_TbZ3OKUH_A2DCuEO5eH-1" vertex="1" connectable="0">
          <mxGeometry x="222" y="450" width="191.68" height="265" as="geometry" />
        </mxCell>
        <mxCell id="Mo-O--3rLt8qyY6fIOhM-182" value="" style="rounded=0;whiteSpace=wrap;html=1;fillColor=#E3F2FD;fontColor=#000000;strokeColor=#000000;fillStyle=auto;gradientColor=none;dashed=1;" parent="Mo-O--3rLt8qyY6fIOhM-181" vertex="1">
          <mxGeometry x="1.25" width="190.43" height="260" as="geometry" />
        </mxCell>
        <mxCell id="Mo-O--3rLt8qyY6fIOhM-184" value="Dominio" style="text;html=1;align=center;verticalAlign=middle;resizable=0;points=[];autosize=1;strokeColor=none;fillColor=none;fontColor=#000000;" parent="Mo-O--3rLt8qyY6fIOhM-181" vertex="1">
          <mxGeometry width="70" height="30" as="geometry" />
        </mxCell>
        <mxCell id="Mo-O--3rLt8qyY6fIOhM-185" value="Repositorio&lt;br&gt;(Interfaz)" style="rounded=1;whiteSpace=wrap;html=1;strokeColor=#000000;fillColor=#E1BEE7;fontColor=#000000;" parent="Mo-O--3rLt8qyY6fIOhM-181" vertex="1">
          <mxGeometry x="37.87000000000001" y="44.35094339622641" width="100.00000000000003" height="43.39622641509435" as="geometry" />
        </mxCell>
        <mxCell id="Mo-O--3rLt8qyY6fIOhM-187" value="" style="shape=image;verticalLabelPosition=bottom;labelBackgroundColor=default;verticalAlign=top;aspect=fixed;imageAspect=0;image=https://cdn-icons-png.flaticon.com/512/2666/2666501.png;fontColor=#000000;" parent="Mo-O--3rLt8qyY6fIOhM-181" vertex="1">
          <mxGeometry x="112.67999999999998" y="66.72169811320755" width="50.000000000000014" height="50.000000000000014" as="geometry" />
        </mxCell>
        <mxCell id="hnWHbzuBNjbLfAXnQaRU-0" value="" style="group" parent="Mo-O--3rLt8qyY6fIOhM-181" vertex="1" connectable="0">
          <mxGeometry x="16.81000000000001" y="130.00301886792454" width="160.69000000000014" height="69.49509433962265" as="geometry" />
        </mxCell>
        <mxCell id="Mo-O--3rLt8qyY6fIOhM-183" value="Entidades Y Reglas de Negocio" style="rounded=1;whiteSpace=wrap;html=1;fillColor=#ECEFF1;strokeColor=#000000;fontColor=#000000;" parent="hnWHbzuBNjbLfAXnQaRU-0" vertex="1">
          <mxGeometry width="142.13000000000002" height="43.39622641509435" as="geometry" />
        </mxCell>
        <mxCell id="Mo-O--3rLt8qyY6fIOhM-186" value="" style="shape=image;verticalLabelPosition=bottom;labelBackgroundColor=default;verticalAlign=top;aspect=fixed;imageAspect=0;image=https://cdn-icons-png.flaticon.com/512/9592/9592975.png;fontColor=#000000;" parent="hnWHbzuBNjbLfAXnQaRU-0" vertex="1">
          <mxGeometry x="116.19000000000014" y="24.995094339622653" width="44.50000000000001" height="44.50000000000001" as="geometry" />
        </mxCell>
        <mxCell id="hnWHbzuBNjbLfAXnQaRU-3" value="&lt;span style=&quot;text-wrap: nowrap;&quot;&gt;Domain Driver Design (DDD)&lt;/span&gt;" style="text;html=1;align=center;verticalAlign=middle;whiteSpace=wrap;rounded=0;" parent="Mo-O--3rLt8qyY6fIOhM-181" vertex="1">
          <mxGeometry y="230" width="190" height="30" as="geometry" />
        </mxCell>
        <mxCell id="Mo-O--3rLt8qyY6fIOhM-188" value="" style="group" parent="_TbZ3OKUH_A2DCuEO5eH-1" vertex="1" connectable="0">
          <mxGeometry x="-50" y="450" width="250" height="369.5" as="geometry" />
        </mxCell>
        <mxCell id="Mo-O--3rLt8qyY6fIOhM-189" value="" style="rounded=0;whiteSpace=wrap;html=1;fillColor=#CFD8DC;fontColor=#000000;strokeColor=#000000;fillStyle=auto;gradientColor=none;dashed=1;" parent="Mo-O--3rLt8qyY6fIOhM-188" vertex="1">
          <mxGeometry width="250" height="369.5" as="geometry" />
        </mxCell>
        <mxCell id="Mo-O--3rLt8qyY6fIOhM-190" value="" style="group" parent="Mo-O--3rLt8qyY6fIOhM-188" vertex="1" connectable="0">
          <mxGeometry x="1.2500000000000284" width="219.43" height="349.5" as="geometry" />
        </mxCell>
        <mxCell id="Mo-O--3rLt8qyY6fIOhM-191" value="&lt;span style=&quot;text-wrap: nowrap;&quot;&gt;Aplicación&lt;/span&gt;" style="text;html=1;align=center;verticalAlign=middle;whiteSpace=wrap;rounded=0;" parent="Mo-O--3rLt8qyY6fIOhM-190" vertex="1">
          <mxGeometry width="80" height="30" as="geometry" />
        </mxCell>
        <mxCell id="Mo-O--3rLt8qyY6fIOhM-192" value="" style="group" parent="Mo-O--3rLt8qyY6fIOhM-190" vertex="1" connectable="0">
          <mxGeometry x="27.21999999999997" y="46.75" width="192.21000000000004" height="302.75" as="geometry" />
        </mxCell>
        <mxCell id="Mo-O--3rLt8qyY6fIOhM-193" value="Caso de uso&lt;br&gt;(Lógica de Negocio)" style="rounded=1;whiteSpace=wrap;html=1;fillColor=#90CAF9;strokeColor=#000000;fontColor=#000000;" parent="Mo-O--3rLt8qyY6fIOhM-192" vertex="1">
          <mxGeometry width="141.93" height="40" as="geometry" />
        </mxCell>
        <mxCell id="Mo-O--3rLt8qyY6fIOhM-194" value="" style="shape=image;verticalLabelPosition=bottom;labelBackgroundColor=default;verticalAlign=top;aspect=fixed;imageAspect=0;image=https://cdn-icons-png.freepik.com/512/9752/9752097.png;fontColor=#000000;" parent="Mo-O--3rLt8qyY6fIOhM-192" vertex="1">
          <mxGeometry x="121.53000000000006" y="22.25" width="40" height="40" as="geometry" />
        </mxCell>
        <mxCell id="Mo-O--3rLt8qyY6fIOhM-195" value="&lt;div&gt;Data Transfer Object&lt;/div&gt;(DTOs)" style="rounded=1;whiteSpace=wrap;html=1;fillColor=#90CAF9;strokeColor=#000000;fontColor=#000000;" parent="Mo-O--3rLt8qyY6fIOhM-192" vertex="1">
          <mxGeometry x="46.210000000000036" y="140.25" width="146" height="40" as="geometry" />
        </mxCell>
        <mxCell id="Mo-O--3rLt8qyY6fIOhM-196" value="Validaciones simples&lt;div&gt;(Formatos)&lt;/div&gt;" style="rounded=1;whiteSpace=wrap;html=1;fillColor=#90CAF9;strokeColor=#000000;fontColor=#000000;" parent="Mo-O--3rLt8qyY6fIOhM-192" vertex="1">
          <mxGeometry x="46.210000000000036" y="199.13" width="146" height="40" as="geometry" />
        </mxCell>
        <mxCell id="Mo-O--3rLt8qyY6fIOhM-197" value="Manejadores de eventos" style="rounded=1;whiteSpace=wrap;html=1;fillColor=#90CAF9;strokeColor=#000000;fontColor=#000000;" parent="Mo-O--3rLt8qyY6fIOhM-192" vertex="1">
          <mxGeometry x="41.86" y="265.25" width="146" height="37.5" as="geometry" />
        </mxCell>
        <mxCell id="Mo-O--3rLt8qyY6fIOhM-198" value="Servicios de aplicación&lt;div&gt;(Coordinar casos de uso)&lt;/div&gt;" style="rounded=1;whiteSpace=wrap;html=1;fillColor=#90CAF9;strokeColor=#000000;fontColor=#000000;" parent="Mo-O--3rLt8qyY6fIOhM-192" vertex="1">
          <mxGeometry x="46.210000000000036" y="77.5" width="146" height="40" as="geometry" />
        </mxCell>
        <mxCell id="Mo-O--3rLt8qyY6fIOhM-199" style="edgeStyle=orthogonalEdgeStyle;rounded=0;orthogonalLoop=1;jettySize=auto;html=1;curved=1;" parent="Mo-O--3rLt8qyY6fIOhM-192" source="Mo-O--3rLt8qyY6fIOhM-193" target="Mo-O--3rLt8qyY6fIOhM-195" edge="1">
          <mxGeometry relative="1" as="geometry">
            <Array as="points">
              <mxPoint x="22.210000000000036" y="160.25" />
            </Array>
          </mxGeometry>
        </mxCell>
        <mxCell id="Mo-O--3rLt8qyY6fIOhM-200" style="edgeStyle=orthogonalEdgeStyle;rounded=0;orthogonalLoop=1;jettySize=auto;html=1;curved=1;" parent="Mo-O--3rLt8qyY6fIOhM-192" source="Mo-O--3rLt8qyY6fIOhM-193" target="Mo-O--3rLt8qyY6fIOhM-196" edge="1">
          <mxGeometry relative="1" as="geometry">
            <Array as="points">
              <mxPoint x="22.210000000000036" y="219.25" />
            </Array>
          </mxGeometry>
        </mxCell>
        <mxCell id="Mo-O--3rLt8qyY6fIOhM-201" style="edgeStyle=orthogonalEdgeStyle;rounded=0;orthogonalLoop=1;jettySize=auto;html=1;curved=1;" parent="Mo-O--3rLt8qyY6fIOhM-192" source="Mo-O--3rLt8qyY6fIOhM-193" target="Mo-O--3rLt8qyY6fIOhM-197" edge="1">
          <mxGeometry relative="1" as="geometry">
            <Array as="points">
              <mxPoint x="22.210000000000036" y="285.25" />
            </Array>
          </mxGeometry>
        </mxCell>
        <mxCell id="Mo-O--3rLt8qyY6fIOhM-202" style="edgeStyle=orthogonalEdgeStyle;rounded=0;orthogonalLoop=1;jettySize=auto;html=1;curved=1;" parent="Mo-O--3rLt8qyY6fIOhM-192" source="Mo-O--3rLt8qyY6fIOhM-193" target="Mo-O--3rLt8qyY6fIOhM-198" edge="1">
          <mxGeometry relative="1" as="geometry">
            <Array as="points">
              <mxPoint x="22.53" y="97.75" />
            </Array>
          </mxGeometry>
        </mxCell>
        <mxCell id="Mo-O--3rLt8qyY6fIOhM-203" style="edgeStyle=orthogonalEdgeStyle;rounded=0;orthogonalLoop=1;jettySize=auto;html=1;curved=1;" parent="_TbZ3OKUH_A2DCuEO5eH-1" target="Mo-O--3rLt8qyY6fIOhM-193" edge="1">
          <mxGeometry relative="1" as="geometry">
            <mxPoint x="30" y="340" as="sourcePoint" />
            <mxPoint x="49" y="447" as="targetPoint" />
          </mxGeometry>
        </mxCell>
        <mxCell id="Mo-O--3rLt8qyY6fIOhM-204" style="edgeStyle=orthogonalEdgeStyle;rounded=0;orthogonalLoop=1;jettySize=auto;html=1;curved=1;" parent="_TbZ3OKUH_A2DCuEO5eH-1" target="Mo-O--3rLt8qyY6fIOhM-193" edge="1">
          <mxGeometry relative="1" as="geometry">
            <mxPoint x="55" y="134" as="sourcePoint" />
            <mxPoint x="100" y="447" as="targetPoint" />
            <Array as="points">
              <mxPoint x="160" y="134" />
              <mxPoint x="160" y="370" />
              <mxPoint x="100" y="370" />
            </Array>
          </mxGeometry>
        </mxCell>
        <mxCell id="Mo-O--3rLt8qyY6fIOhM-205" style="edgeStyle=orthogonalEdgeStyle;rounded=0;orthogonalLoop=1;jettySize=auto;html=1;curved=1;" parent="_TbZ3OKUH_A2DCuEO5eH-1" source="Mo-O--3rLt8qyY6fIOhM-193" target="Mo-O--3rLt8qyY6fIOhM-183" edge="1">
          <mxGeometry relative="1" as="geometry">
            <Array as="points">
              <mxPoint x="200" y="510" />
              <mxPoint x="200" y="600" />
            </Array>
            <mxPoint x="120" y="460" as="sourcePoint" />
            <mxPoint x="243" y="547" as="targetPoint" />
          </mxGeometry>
        </mxCell>
        <mxCell id="Mo-O--3rLt8qyY6fIOhM-206" style="edgeStyle=orthogonalEdgeStyle;rounded=0;orthogonalLoop=1;jettySize=auto;html=1;curved=1;" parent="_TbZ3OKUH_A2DCuEO5eH-1" target="Mo-O--3rLt8qyY6fIOhM-185" edge="1">
          <mxGeometry relative="1" as="geometry">
            <Array as="points">
              <mxPoint x="150" y="510" />
              <mxPoint x="150" y="510" />
            </Array>
            <mxPoint x="120" y="510" as="sourcePoint" />
            <mxPoint x="260" y="461" as="targetPoint" />
          </mxGeometry>
        </mxCell>
        <mxCell id="Mo-O--3rLt8qyY6fIOhM-207" style="edgeStyle=orthogonalEdgeStyle;rounded=0;orthogonalLoop=1;jettySize=auto;html=1;" parent="_TbZ3OKUH_A2DCuEO5eH-1" source="Mo-O--3rLt8qyY6fIOhM-185" edge="1">
          <mxGeometry relative="1" as="geometry">
            <mxPoint x="310" y="471" as="sourcePoint" />
            <mxPoint x="310" y="340" as="targetPoint" />
          </mxGeometry>
        </mxCell>
      </root>
    </mxGraphModel>
  </diagram>
</mxfile>
